<svg width="503" height="514" viewBox="0 0 503 514" fill="none" xmlns="http://www.w3.org/2000/svg">
<path d="M255 214.5C255 208.701 259.701 204 265.5 204C271.299 204 276 208.701 276 214.5C276 220.299 271.299 225 265.5 225C259.701 225 255 220.299 255 214.5Z" fill="white"/>
<path d="M210 250C210 242.268 216.268 236 224 236C231.732 236 238 242.268 238 250C238 257.732 231.732 264 224 264C216.268 264 210 257.732 210 250Z" fill="white"/>
<path d="M240 285C240 272.85 249.85 263 262 263C274.15 263 284 272.85 284 285C284 297.15 274.15 307 262 307C249.85 307 240 297.15 240 285Z" fill="white"/>
<path d="M423 44C422.82 44.0616 422.64 44.1232 422.46 44.185C405.408 50.1272 383.269 67.8027 361.5 82C304.444 119.21 258.938 164.015 230.169 192.342L229.5 193C208 215.667 157.5 275.5 127.5 333.5C90 406 72.5 433 91.5 459.5C106.7 480.7 125.167 483.667 132.5 482.5C200.167 482.833 339.9 483.3 357.5 482.5C379.5 481.5 385 484.5 407.5 459.5C429 433 391 372.5 385 360.5C380.2 350.9 358.667 313.167 348.5 295.5L363.5 270C387.5 310.5 413.5 359.5 425.5 384.5C437.5 409.5 449.5 435 429 473.5C412.6 504.3 374.5 509.667 357.5 508.5C291 508.667 152.9 508.9 132.5 508.5C107 508 86.5 499 67 470.5C51.4 447.7 59.1667 414.333 65 400.5C97.9731 322.564 201.83 119.831 422.46 44.185C422.64 44.122 422.82 44.0603 423 44Z" fill="white"/>
<path d="M319.5 134L293.5 154C293.5 192 293.5 193 296.5 208C298.9 220 310.833 238.667 316.5 246.5L331.5 221.5C321.5 209.9 319.333 192 319.5 184.5V134Z" fill="white"/>
<path d="M205 161.5L180 187.5V72.5C149 73.5 143.5 59.5 143.5 42C144 27 151.6 13.1 180 13.5C208.4 13.9 290.167 13.6667 327.5 13.5C341 13.5 354.5 26 354.5 38C354.5 51 354.5 57 342 62.5C332.174 66.8235 297.5 88 294 90.5V65.5C294 60 299.5 53 306.5 53H319.5C323.5 52.8333 331.5 50.7 331.5 43.5C331.5 34.5 324.5 33.5 319.5 33.5H180C175.667 32.8333 167 33.9 167 43.5C167 53.1 174.5 53 180 53H193.5C197 53 205 59.5 205 68.5V161.5Z" fill="white"/>
<path fill-rule="evenodd" clip-rule="evenodd" d="M388 158L403 168L273.5 391C261.5 412 247.5 431.5 199.5 431.5C158 431.5 140 415 140 372C139.667 363.667 141.6 345.3 152 338.5C165 330 170 327.5 195 336C220 344.5 233.5 362.5 247 365C260.5 367.5 264 367.5 278 343.5C289.2 324.3 356 211.833 388 158ZM213 369L164 358C165 355.167 170.5 349.5 173.5 349.5C178.7 349.5 202 362.5 213 369ZM163 365L162 375L237 383V381.5L163 365ZM172.5 409C179.3 409 220 404.333 239.5 402L239 401L166 399.5C166.8 403.5 170.667 407.5 172.5 409ZM163 390L162.5 382.5C218.1 388.5 236.667 392 239 393L239.5 394.5L167 391.5C166.167 391.333 164.2 390.8 163 390Z" fill="white"/>
<path d="M410 155L393.5 146L474 4.49995C476 3.99995 481 3.49995 485 5.49995C489 7.49995 490.667 11.9999 491 13.9999L410 155Z" fill="white" fill-opacity="0.3"/>
<path d="M102.5 432C103.7 422 118 393.167 125 380C131.5 437.5 165.5 446 188.5 447.5C211.5 449 243.5 442.5 261 431C275 421.8 304.167 371.833 317 348C329.8 354.4 350.667 352.667 359.5 351L393.5 421.5C402.7 456.7 375 461.932 359.5 462C283.833 462.333 130.4 462.8 122 462C111.5 461 101 444.5 102.5 432Z" fill="white" fill-opacity="0.3"/>
<path d="M266.5 332.5C246.5 318.1 204.833 315.167 186.5 315.5C199.5 319 197.5 319.5 212 326C226.5 332.5 252 351.5 255.5 349.5C258.3 347.9 264 337.5 266.5 332.5Z" fill="white" fill-opacity="0.3"/>
</svg>
